# xmcd CD database file
#
# Track frame offsets:
#	150
#	11589
#	25365
#	36635
#	41016
#	57581
#	69493
#	80162
#	99171
#	107509
#	117947
#	128377
#	139964
#	147709
#	165235
#	175146
#	185058
#	197936
#	217511
#	226476
#	242666
#	253924
#	268198
#	281401
#	293615
#
# Disc length: 4124 seconds
#
# Revision: 0
# Processed by: cddbd v1.5.1PL2 Copyright (c) Steve Scherf et al.
# Submitted via: CDex 1.51
#
DISCID=75101a19
DTITLE=Various Artist - Speedcore 4 Life Volume 2 cd1
DYEAR=2006
DGENRE=Speedcore
TTITLE0=Intro
TTITLE1=Stickhead - Meat Grind
TTITLE2=Fanatic Noize Killer - Blood Massacre
TTITLE3=DJ R.Shock - Yeah, What The Fuck
TTITLE4=Ram - Preching The Moment
TTITLE5=Terrorist Kriss - Lord Terror
TTITLE6=Raw State - Relax
TTITLE7=DJ R.Shock - Kill You All
TTITLE8=Stickhead - I Piss On Your Grave
TTITLE9=Terrorist Kriss - Get The Fuck Off
TTITLE10=Cerebellum - Photocore
TTITLE11=Dr. Klaw - The Living Damned
TTITLE12=Cudgel - Breakfast
TTITLE13=Lonely Freak - Synthetic War Pt.1
TTITLE14=A.N.C. - Coldlife
TTITLE15=Dash - Can You Dig It
TTITLE16=The Riotudder - Go
TTITLE17=Qualkommando - Brut des Wahnsinns
TTITLE18=disco Cunt - Against Us
TTITLE19=Stickhead - Your Own Death
TTITLE20=Qualkommando - X-treme Coming
TTITLE21=Cerebellum - Zagubiony w Piekle
TTITLE22=ampaKILL - Fire In Ya Brain
TTITLE23=How To Kill - Time To Fear
TTITLE24=The Pain Barrier - Greif-Stricken (Disorder Remix)
EXTD=YEAR: 2006
EXTT0=
EXTT1=
EXTT2=
EXTT3=
EXTT4=
EXTT5=
EXTT6=
EXTT7=
EXTT8=
EXTT9=
EXTT10=
EXTT11=
EXTT12=
EXTT13=
EXTT14=
EXTT15=
EXTT16=
EXTT17=
EXTT18=
EXTT19=
EXTT20=
EXTT21=
EXTT22=
EXTT23=
EXTT24=
PLAYORDER=
